# xmcd
# 
# Track frame offsets:
#     150
#     18239
#     35249
#     54196
# 
# Disc length: 1108
# 
# Revision: 0
# Processed by: cddbd v1.5.2PL0 Copyright (c) Steve Scherf et al.
# Submitted via: fre:ac v1.0.17
# 
DISCID=29045204
DTITLE=Godsmack - Live and Ispired Bonus
DYEAR=2012
DGENRE=Hard Rock
TTITLE0=Rocky Mountain Way
TTITLE1=Come Together
TTITLE2=Time
TTITLE3=Nothing Else Matters
EXTD=
EXTT0=
EXTT1=
EXTT2=
EXTT3=
PLAYORDER=
